<svg xmlns="http://www.w3.org/2000/svg" viewBox="0 0 1028 100" width="1028" height="100"><g xmlns="http://www.w3.org/2000/svg" transform="matrix(0 1 -1 0 1028 -0)"><path d="M85 0L75.2 24.5C65.3 49 45.7 98 39.2 147C32.7 196 39.3 245 48.3 294C57.3 343 68.7 392 73.3 440.8C78 489.7 76 538.3 65.3 587.2C54.7 636 35.3 685 32.3 734C29.3 783 42.7 832 47.3 881C52 930 48 979 46 1003.5L44 1028L0 1028L0 1003.5C0 979 0 930 0 881C0 832 0 783 0 734C0 685 0 636 0 587.2C0 538.3 0 489.7 0 440.8C0 392 0 343 0 294C0 245 0 196 0 147C0 98 0 49 0 24.5L0 0Z" fill="#001122" stroke-linecap="round" stroke-linejoin="miter"></path></g></svg>