<svg id="visual" viewBox="0 0 300 900" width="300" height="900" xmlns="http://www.w3.org/2000/svg"
     xmlns:xlink="http://www.w3.org/1999/xlink" version="1.1">
    <path d="M292 0L266.7 37.5C241.3 75 190.7 150 175.8 225C161 300 182 375 188.8 450C195.7 525 188.3 600 185.8 675C183.3 750 185.7 825 186.8 862.5L188 900L0 900L0 862.5C0 825 0 750 0 675C0 600 0 525 0 450C0 375 0 300 0 225C0 150 0 75 0 37.5L0 0Z"
          fill="#ffa096"></path>
    <path d="M216 0L193.3 37.5C170.7 75 125.3 150 111.2 225C97 300 114 375 132.7 450C151.3 525 171.7 600 177.2 675C182.7 750 173.3 825 168.7 862.5L164 900L0 900L0 862.5C0 825 0 750 0 675C0 600 0 525 0 450C0 375 0 300 0 225C0 150 0 75 0 37.5L0 0Z"
          fill="#fa7268"></path>
    <path d="M99 0L92.5 37.5C86 75 73 150 68.7 225C64.3 300 68.7 375 73.8 450C79 525 85 600 82.3 675C79.7 750 68.3 825 62.7 862.5L57 900L0 900L0 862.5C0 825 0 750 0 675C0 600 0 525 0 450C0 375 0 300 0 225C0 150 0 75 0 37.5L0 0Z"
          fill="#c04e45"></path>
</svg>